# xmcd
#
# Track frame offsets:
#	150
#	19722
#	71152
#	114250
#	130717
#	144627
#	151635
#	160190
#	174190
#	192220
#	208320
#
# Disc length: 2888 seconds
#
# Revision: 1
# Processed by: cddbd v1.5.1PL0 Copyright (c) Steve Scherf et al.
# Submitted via: CDex 1.50Beta5
#
DISCID=8d0b460b
DTITLE=安元弘行 - 管楽器ソロ名曲集
DYEAR=1990
DGENRE=
TTITLE0=樹々の朝の歌
TTITLE1=チューバのためのファンタジア
TTITLE2=チューバ、打楽器、ピアノのためのトリオ・ソナタ
TTITLE3=愛の喜び
TTITLE4=はかなし愛の誓い
TTITLE5=動物の謝肉祭
TTITLE6=チューバの舟歌
TTITLE7=サクラサクラ
TTITLE8=二人のために
TTITLE9=イエスタデイ
TTITLE10=明るい街角で
EXTD=
EXTT0=
EXTT1=
EXTT2=
EXTT3=
EXTT4=
EXTT5=
EXTT6=
EXTT7=
EXTT8=
EXTT9=
EXTT10=
PLAYORDER=
